<svg xmlns="http://www.w3.org/2000/svg" width="38.78" height="29.535" viewBox="0 0 38.78 29.535">
  <g id="Group_24509" data-name="Group 24509" transform="translate(-464.542 -158.357)">
    <path id="Path_76587" data-name="Path 76587" d="M508.7,192.654c-3.212.128-8.412.023-11.9.024a66.154,66.154,0,0,0-3.216,5.838l18.489-.021,6.663-11.561c3.922-6.816,3.944-5.122,1.81-8.761a30.177,30.177,0,0,0-1.674-2.866C518.369,175.765,509.355,191.581,508.7,192.654Z" transform="translate(-18.642 -10.88)" fill="#fff" fill-rule="evenodd"/>
    <path id="Path_76588" data-name="Path 76588" d="M467.7,208.865c.684-.548,6-10.124,7.145-11.953,3.945-.289,8.1.082,11.88-.063a24.87,24.87,0,0,1,1.634-2.834,22.686,22.686,0,0,0,1.618-2.965l-18.559-.022c-1.261,1.906-3.166,5.627-4.556,7.926-.521.862-.9,1.54-1.409,2.435s-1.3,1.549-.68,2.567C465.75,205.577,466.714,207.56,467.7,208.865Z" transform="translate(0 -20.973)" fill="#ca001b" fill-rule="evenodd"/>
    <path id="Path_76589" data-name="Path 76589" d="M488.973,164.144l26.724,0a51.3,51.3,0,0,0-3.311-5.738l-20.3-.053C491.751,158.9,489.048,163.659,488.973,164.144Z" transform="translate(-15.682)" fill="#fff" fill-rule="evenodd"/>
  </g>
</svg>
